<svg version="1.1" id="Layer_1" xmlns="http://www.w3.org/2000/svg" xmlns:xlink="http://www.w3.org/1999/xlink" x="0px" y="0px"
	 width="100%" viewBox="0 0 512 512" enable-background="new 0 0 512 512" xml:space="preserve">
<path fill="#000000" opacity="1.000000" stroke="none" 
	d="
M513.000000,173.000000 
	C513.000000,286.639038 513.000000,399.778076 513.000000,512.958557 
	C342.402618,512.958557 171.805222,512.958557 1.103918,512.958557 
	C1.103918,342.444336 1.103918,171.888565 1.103918,1.166402 
	C171.666534,1.166402 342.333252,1.166402 513.000000,1.166402 
	C513.000000,58.194736 513.000000,115.347366 513.000000,173.000000 
M378.845123,43.365582 
	C378.216309,43.181107 377.587463,42.996635 376.981628,42.988026 
	C376.981628,42.988026 377.157501,42.965073 376.839050,42.326580 
	C367.456207,37.862202 358.207550,33.084919 348.665039,28.992920 
	C321.495087,17.341999 292.856079,12.091179 263.482391,11.157817 
	C251.989075,10.792611 240.338379,11.606137 228.934799,13.165567 
	C215.275391,15.033478 201.583755,17.466684 188.296722,21.088306 
	C161.419434,28.414215 136.787827,40.661114 114.040100,56.890789 
	C94.401665,70.902100 77.298141,87.524017 62.470055,106.338860 
	C50.074474,122.067162 40.016426,139.361267 31.924915,157.819229 
	C21.310163,182.033112 14.637572,207.266693 12.201783,233.465286 
	C11.000801,246.382690 11.952613,259.503693 11.994973,272.532349 
	C12.046382,288.344360 15.099047,303.742889 19.050098,318.936401 
	C25.093515,342.175995 33.744675,364.439484 47.022663,384.551636 
	C54.633728,396.080078 62.623173,407.507874 71.704346,417.875519 
	C81.129356,428.635590 91.469948,438.803162 102.529915,447.862762 
	C113.566040,456.902802 125.675720,464.769592 137.916428,472.153259 
	C146.057129,477.063721 155.254074,480.223145 163.968079,484.067993 
	C163.968079,484.067993 163.869720,484.078217 164.235153,484.706116 
	C165.832443,485.200134 167.429718,485.694153 169.004639,486.037079 
	C169.004639,486.037079 168.853546,486.059509 169.231750,486.702209 
	C172.829651,487.862549 176.427551,489.022888 180.003998,490.036682 
	C180.003998,490.036682 179.857468,490.058228 180.252197,490.708679 
	C181.257507,490.760132 182.262817,490.811615 183.817947,491.357635 
	C185.227158,491.764435 186.658966,492.106384 188.042175,492.587891 
	C207.240723,499.271179 227.238266,501.914642 247.336395,502.739288 
	C261.542938,503.322205 275.889618,502.234436 290.085938,500.933868 
	C314.186493,498.725891 337.286163,492.116394 359.317657,482.229858 
	C392.785889,467.211029 421.653381,445.939575 445.649841,417.986450 
	C465.449982,394.921539 480.406860,369.171600 490.619659,340.635010 
	C498.480713,318.669647 503.610535,296.060303 503.917725,272.663513 
	C504.121735,257.125092 504.352692,241.440704 502.556976,226.056808 
	C499.900848,203.301743 493.515442,181.351212 484.262238,160.236984 
	C473.710663,136.160141 459.899658,114.215797 442.178162,94.899094 
	C434.357910,86.374924 425.575745,78.628845 416.607300,71.290970 
	C407.076599,63.493034 396.807800,56.597221 386.900208,48.679657 
	C386.614655,48.400322 386.329102,48.120987 386.044983,47.946453 
	C386.044983,47.946453 386.149780,47.944950 385.839844,47.359520 
	C385.210144,47.177460 384.580414,46.995403 383.972931,47.005928 
	C383.972931,47.005928 384.165527,46.983727 383.879303,46.375141 
	C382.929260,45.861683 381.979187,45.348225 381.037170,44.936638 
	C381.037170,44.936638 381.139038,44.928574 380.832794,44.349579 
	C380.210175,44.169491 379.587585,43.989399 378.988159,43.974838 
	C378.988159,43.974838 379.153687,43.951595 378.845123,43.365582 
z"/>
<path fill="#39474F" opacity="1.000000" stroke="none" 
	d="
M386.861298,49.307480 
	C396.807800,56.597221 407.076599,63.493034 416.607300,71.290970 
	C425.575745,78.628845 434.357910,86.374924 442.178162,94.899094 
	C459.899658,114.215797 473.710663,136.160141 484.262238,160.236984 
	C493.515442,181.351212 499.900848,203.301743 502.556976,226.056808 
	C504.352692,241.440704 504.121735,257.125092 503.917725,272.663513 
	C503.610535,296.060303 498.480713,318.669647 490.619659,340.635010 
	C480.406860,369.171600 465.449982,394.921539 445.649841,417.986450 
	C421.653381,445.939575 392.785889,467.211029 359.317657,482.229858 
	C337.286163,492.116394 314.186493,498.725891 290.085938,500.933868 
	C275.889618,502.234436 261.542938,503.322205 247.336395,502.739288 
	C227.238266,501.914642 207.240723,499.271179 188.042175,492.587891 
	C186.658966,492.106384 185.227158,491.764435 183.284637,490.809875 
	C181.786713,490.194183 180.822083,490.126190 179.857468,490.058228 
	C179.857468,490.058228 180.003998,490.036682 180.018463,489.730347 
	C176.306473,488.302521 172.580002,487.181030 168.853546,486.059509 
	C168.853546,486.059509 169.004639,486.037079 169.011108,485.705322 
	C167.301636,484.941772 165.585678,484.510010 163.869720,484.078217 
	C163.869720,484.078217 163.968079,484.067993 164.093369,483.755249 
	C162.760773,482.666168 161.342133,481.802673 159.839417,481.125946 
	C37.471050,426.021057 -17.629572,281.998688 36.776695,159.431564 
	C93.889671,30.766741 247.197754,-23.011190 372.621765,41.591141 
	C374.003113,42.302631 375.639923,42.518070 377.157501,42.965073 
	C377.157501,42.965073 376.981628,42.988026 377.006195,43.303314 
	C377.738403,43.729599 378.446045,43.840599 379.153687,43.951595 
	C379.153687,43.951595 378.988159,43.974838 379.001831,44.316544 
	C379.723358,44.748360 380.431213,44.838467 381.139038,44.928574 
	C381.139038,44.928574 381.037170,44.936638 380.891205,45.259445 
	C381.885345,46.049408 383.025421,46.516567 384.165527,46.983727 
	C384.165527,46.983727 383.972931,47.005928 384.015900,47.311520 
	C384.755829,47.726391 385.452820,47.835670 386.149780,47.944950 
	C386.149780,47.944950 386.044983,47.946453 385.876831,48.214390 
	C386.092926,48.757374 386.477112,49.032425 386.861298,49.307480 
M61.792614,150.972458 
	C110.686264,119.574104 164.148346,101.470161 222.084091,96.636818 
	C222.084091,95.292435 222.169220,94.627975 222.065475,93.994438 
	C221.878143,92.850327 221.627350,91.710983 221.317535,90.593361 
	C215.839630,70.833084 202.853683,58.863876 182.868393,55.262268 
	C175.705597,53.971436 166.971909,52.635815 160.896606,55.474937 
	C117.044380,75.968048 83.543602,107.898155 60.118511,150.889877 
	C60.450527,150.967957 60.782543,151.046021 61.792614,150.972458 
M287.157776,181.530899 
	C287.579742,162.043381 287.860535,142.551010 288.529846,123.071999 
	C288.683777,118.591003 287.131958,117.200180 282.970215,117.128540 
	C275.477661,116.999550 267.992401,116.493958 260.500275,116.276184 
	C255.902130,116.142525 251.296921,116.251465 246.901581,116.251465 
	C246.028641,123.315277 245.651611,129.476028 244.457245,135.473999 
	C240.090820,157.401550 229.761032,176.767441 217.882797,195.372528 
	C197.008270,228.068665 171.318680,256.976654 146.264511,286.409271 
	C126.947609,309.101990 107.963829,332.099487 89.542053,355.520050 
	C83.998611,362.567719 80.570107,371.363037 76.691223,379.601837 
	C74.623535,383.993713 75.556038,388.139282 78.850525,392.412109 
	C101.894989,422.299591 130.473984,445.149506 164.736816,460.849609 
	C180.800217,468.210266 197.520630,473.640442 215.233200,476.794678 
	C221.440247,465.546661 227.606186,454.515594 233.640289,443.412872 
	C254.807892,404.464508 269.343262,363.271545 276.282623,319.382782 
	C283.454132,274.025909 285.792755,228.321609 287.157776,181.530899 
M307.958740,205.483597 
	C306.627350,227.429031 305.685486,249.406708 303.873352,271.312378 
	C301.152191,304.207611 296.237183,336.764496 287.276855,368.638367 
	C276.882446,405.613556 260.283691,439.836578 241.618179,473.177979 
	C240.461716,475.243744 239.379181,477.350861 238.002335,479.924622 
	C242.607803,480.288971 246.247665,480.756592 249.896194,480.838531 
	C304.057861,482.055756 352.358643,465.817993 395.408691,432.904572 
	C405.715424,425.024689 412.176819,415.564880 414.526978,403.195282 
	C416.105896,394.884918 417.573730,386.445953 417.877502,378.020752 
	C418.807678,352.222687 411.669403,327.888336 402.473114,304.214203 
	C393.860748,282.043243 383.800201,260.436096 375.125000,238.287888 
	C361.980713,204.729980 353.973602,169.984039 352.983368,133.780075 
	C352.946442,132.430695 351.122009,130.391602 349.723633,129.943253 
	C342.916626,127.760818 336.012909,125.836845 329.061737,124.160187 
	C322.972900,122.691536 316.775604,121.672539 310.217926,120.374077 
	C309.460297,148.938599 308.723480,176.718918 307.958740,205.483597 
M33.554291,272.854126 
	C35.895882,304.559601 44.342365,334.440430 59.615067,362.547668 
	C60.492634,361.920044 60.841267,361.790375 60.998608,361.540314 
	C63.480991,357.595062 65.925621,353.626068 68.404312,349.678497 
	C85.843674,321.904724 107.307640,297.380646 129.188293,273.084351 
	C153.597122,245.980759 177.318390,218.224579 197.369614,187.613419 
	C208.715973,170.291534 219.052444,152.427139 223.390854,131.834900 
	C224.324417,127.403694 224.573868,122.828354 225.159607,118.150536 
	C223.313843,118.150536 222.476974,118.070442 221.659332,118.161980 
	C173.983414,123.499466 128.631134,136.384323 86.834656,160.376892 
	C69.704384,170.210220 53.716095,181.616882 42.322704,198.275116 
	C41.231350,199.870758 40.330566,201.724152 39.847466,203.589005 
	C34.036961,226.018372 31.988327,248.812195 33.554291,272.854126 
M413.020325,272.498047 
	C427.682678,308.611176 441.516754,344.921753 439.074524,386.346954 
	C440.752045,384.259796 441.515442,383.443909 442.128876,382.527618 
	C475.420380,332.800934 487.272736,278.401886 477.503693,219.358078 
	C477.095154,216.888748 475.896088,214.231430 474.280243,212.328247 
	C447.769592,181.103546 415.732971,157.211029 378.320374,140.536667 
	C377.219666,140.046066 376.007935,139.804474 374.429169,139.317627 
	C375.679016,158.556046 379.058960,176.819260 383.428925,194.955460 
	C389.906433,221.838272 401.785370,246.625916 413.020325,272.498047 
M239.829376,77.790695 
	C241.094727,82.092079 242.884460,86.322754 243.476654,90.714897 
	C244.058380,95.029503 246.105759,95.448997 249.792603,95.454819 
	C260.600494,95.471863 271.407867,95.927940 282.214935,96.231377 
	C284.281006,96.289383 286.344635,96.435516 288.629089,96.552216 
	C288.629089,75.892021 288.629089,55.862812 288.629089,35.590809 
	C260.587189,31.131598 233.202744,32.606819 204.598892,39.544231 
	C222.018234,47.858757 232.676346,60.771362 239.829376,77.790695 
M323.876312,101.606819 
	C334.786804,104.335938 345.697296,107.065056 355.962555,109.632782 
	C359.677673,102.617325 362.558777,95.410187 366.979584,89.320854 
	C371.487457,83.111618 377.508911,78.001221 383.116669,72.149956 
	C361.100189,57.152893 337.053711,46.231667 310.356995,39.807243 
	C310.356995,59.967808 310.356995,79.243256 310.356995,98.909340 
	C314.630188,99.733818 318.846313,100.547295 323.876312,101.606819 
M393.683868,124.791824 
	C418.420685,136.420853 440.904388,151.520905 462.160980,170.050964 
	C461.939056,168.197952 462.034607,167.309830 461.719299,166.605682 
	C448.316040,136.673309 429.418274,110.765526 404.706726,89.168159 
	C403.782196,88.360115 401.917328,87.920143 400.731171,88.229851 
	C390.025696,91.025055 378.602051,105.573769 377.718964,117.536682 
	C382.755615,119.805901 387.891052,122.119629 393.683868,124.791824 
z"/>
<path fill="#F96F44" opacity="1.000000" stroke="none" 
	d="
M376.998291,42.645828 
	C375.639923,42.518070 374.003113,42.302631 372.621765,41.591141 
	C247.197754,-23.011190 93.889671,30.766741 36.776695,159.431564 
	C-17.629572,281.998688 37.471050,426.021057 159.839417,481.125946 
	C161.342133,481.802673 162.760773,482.666168 164.098450,483.804413 
	C155.254074,480.223145 146.057129,477.063721 137.916428,472.153259 
	C125.675720,464.769592 113.566040,456.902802 102.529915,447.862762 
	C91.469948,438.803162 81.129356,428.635590 71.704346,417.875519 
	C62.623173,407.507874 54.633728,396.080078 47.022663,384.551636 
	C33.744675,364.439484 25.093515,342.175995 19.050098,318.936401 
	C15.099047,303.742889 12.046382,288.344360 11.994973,272.532349 
	C11.952613,259.503693 11.000801,246.382690 12.201783,233.465286 
	C14.637572,207.266693 21.310163,182.033112 31.924915,157.819229 
	C40.016426,139.361267 50.074474,122.067162 62.470055,106.338860 
	C77.298141,87.524017 94.401665,70.902100 114.040100,56.890789 
	C136.787827,40.661114 161.419434,28.414215 188.296722,21.088306 
	C201.583755,17.466684 215.275391,15.033478 228.934799,13.165567 
	C240.338379,11.606137 251.989075,10.792611 263.482391,11.157817 
	C292.856079,12.091179 321.495087,17.341999 348.665039,28.992920 
	C358.207550,33.084919 367.456207,37.862202 376.998291,42.645828 
z"/>
<path fill="#F96F44" opacity="1.000000" stroke="none" 
	d="
M169.042648,486.380859 
	C172.580002,487.181030 176.306473,488.302521 180.029205,489.803619 
	C176.427551,489.022888 172.829651,487.862549 169.042648,486.380859 
z"/>
<path fill="#F96F44" opacity="1.000000" stroke="none" 
	d="
M164.052429,484.392151 
	C165.585678,484.510010 167.301636,484.941772 169.022308,485.780884 
	C167.429718,485.694153 165.832443,485.200134 164.052429,484.392151 
z"/>
<path fill="#F96F44" opacity="1.000000" stroke="none" 
	d="
M384.022400,46.679436 
	C383.025421,46.516567 381.885345,46.049408 380.887207,45.208508 
	C381.979187,45.348225 382.929260,45.861683 384.022400,46.679436 
z"/>
<path fill="#F96F44" opacity="1.000000" stroke="none" 
	d="
M180.054840,490.383453 
	C180.822083,490.126190 181.786713,490.194183 183.009735,490.562622 
	C182.262817,490.811615 181.257507,490.760132 180.054840,490.383453 
z"/>
<path fill="#F96F44" opacity="1.000000" stroke="none" 
	d="
M385.994812,47.652237 
	C385.452820,47.835670 384.755829,47.726391 384.004791,47.215229 
	C384.580414,46.995403 385.210144,47.177460 385.994812,47.652237 
z"/>
<path fill="#F96F44" opacity="1.000000" stroke="none" 
	d="
M380.985901,44.639076 
	C380.431213,44.838467 379.723358,44.748360 378.990234,44.233780 
	C379.587585,43.989399 380.210175,44.169491 380.985901,44.639076 
z"/>
<path fill="#F96F44" opacity="1.000000" stroke="none" 
	d="
M378.999390,43.658588 
	C378.446045,43.840599 377.738403,43.729599 376.994690,43.215382 
	C377.587463,42.996635 378.216309,43.181107 378.999390,43.658588 
z"/>
<path fill="#F96F44" opacity="1.000000" stroke="none" 
	d="
M386.880737,48.993568 
	C386.477112,49.032425 386.092926,48.757374 385.876099,48.161987 
	C386.329102,48.120987 386.614655,48.400322 386.880737,48.993568 
z"/>
<path fill="#FE7043" opacity="1.000000" stroke="none" 
	d="
M287.147522,182.026138 
	C285.792755,228.321609 283.454132,274.025909 276.282623,319.382782 
	C269.343262,363.271545 254.807892,404.464508 233.640289,443.412872 
	C227.606186,454.515594 221.440247,465.546661 215.233200,476.794678 
	C197.520630,473.640442 180.800217,468.210266 164.736816,460.849609 
	C130.473984,445.149506 101.894989,422.299591 78.850525,392.412109 
	C75.556038,388.139282 74.623535,383.993713 76.691223,379.601837 
	C80.570107,371.363037 83.998611,362.567719 89.542053,355.520050 
	C107.963829,332.099487 126.947609,309.101990 146.264511,286.409271 
	C171.318680,256.976654 197.008270,228.068665 217.882797,195.372528 
	C229.761032,176.767441 240.090820,157.401550 244.457245,135.473999 
	C245.651611,129.476028 246.028641,123.315277 246.901581,116.251465 
	C251.296921,116.251465 255.902130,116.142525 260.500275,116.276184 
	C267.992401,116.493958 275.477661,116.999550 282.970215,117.128540 
	C287.131958,117.200180 288.683777,118.591003 288.529846,123.071999 
	C287.860535,142.551010 287.579742,162.043381 287.147522,182.026138 
z"/>
<path fill="#FE7043" opacity="1.000000" stroke="none" 
	d="
M307.972717,204.991425 
	C308.723480,176.718918 309.460297,148.938599 310.217926,120.374077 
	C316.775604,121.672539 322.972900,122.691536 329.061737,124.160187 
	C336.012909,125.836845 342.916626,127.760818 349.723633,129.943253 
	C351.122009,130.391602 352.946442,132.430695 352.983368,133.780075 
	C353.973602,169.984039 361.980713,204.729980 375.125000,238.287888 
	C383.800201,260.436096 393.860748,282.043243 402.473114,304.214203 
	C411.669403,327.888336 418.807678,352.222687 417.877502,378.020752 
	C417.573730,386.445953 416.105896,394.884918 414.526978,403.195282 
	C412.176819,415.564880 405.715424,425.024689 395.408691,432.904572 
	C352.358643,465.817993 304.057861,482.055756 249.896194,480.838531 
	C246.247665,480.756592 242.607803,480.288971 238.002335,479.924622 
	C239.379181,477.350861 240.461716,475.243744 241.618179,473.177979 
	C260.283691,439.836578 276.882446,405.613556 287.276855,368.638367 
	C296.237183,336.764496 301.152191,304.207611 303.873352,271.312378 
	C305.685486,249.406708 306.627350,227.429031 307.972717,204.991425 
z"/>
<path fill="#FE7043" opacity="1.000000" stroke="none" 
	d="
M33.511288,272.391479 
	C31.988327,248.812195 34.036961,226.018372 39.847466,203.589005 
	C40.330566,201.724152 41.231350,199.870758 42.322704,198.275116 
	C53.716095,181.616882 69.704384,170.210220 86.834656,160.376892 
	C128.631134,136.384323 173.983414,123.499466 221.659332,118.161980 
	C222.476974,118.070442 223.313843,118.150536 225.159607,118.150536 
	C224.573868,122.828354 224.324417,127.403694 223.390854,131.834900 
	C219.052444,152.427139 208.715973,170.291534 197.369614,187.613419 
	C177.318390,218.224579 153.597122,245.980759 129.188293,273.084351 
	C107.307640,297.380646 85.843674,321.904724 68.404312,349.678497 
	C65.925621,353.626068 63.480991,357.595062 60.998608,361.540314 
	C60.841267,361.790375 60.492634,361.920044 59.615067,362.547668 
	C44.342365,334.440430 35.895882,304.559601 33.511288,272.391479 
z"/>
<path fill="#FE7043" opacity="1.000000" stroke="none" 
	d="
M412.884369,272.138123 
	C401.785370,246.625916 389.906433,221.838272 383.428925,194.955460 
	C379.058960,176.819260 375.679016,158.556046 374.429169,139.317627 
	C376.007935,139.804474 377.219666,140.046066 378.320374,140.536667 
	C415.732971,157.211029 447.769592,181.103546 474.280243,212.328247 
	C475.896088,214.231430 477.095154,216.888748 477.503693,219.358078 
	C487.272736,278.401886 475.420380,332.800934 442.128876,382.527618 
	C441.515442,383.443909 440.752045,384.259796 439.074524,386.346954 
	C441.516754,344.921753 427.682678,308.611176 412.884369,272.138123 
z"/>
<path fill="#FD7043" opacity="1.000000" stroke="none" 
	d="
M60.316780,150.470352 
	C83.543602,107.898155 117.044380,75.968048 160.896606,55.474937 
	C166.971909,52.635815 175.705597,53.971436 182.868393,55.262268 
	C202.853683,58.863876 215.839630,70.833084 221.317535,90.593361 
	C221.627350,91.710983 221.878143,92.850327 222.065475,93.994438 
	C222.169220,94.627975 222.084091,95.292435 222.084091,96.636818 
	C164.148346,101.470161 110.686264,119.574104 61.255638,150.883011 
	C60.584698,150.685822 60.450737,150.578094 60.316780,150.470352 
z"/>
<path fill="#FD7043" opacity="1.000000" stroke="none" 
	d="
M239.682556,77.435898 
	C232.676346,60.771362 222.018234,47.858757 204.598892,39.544231 
	C233.202744,32.606819 260.587189,31.131598 288.629089,35.590809 
	C288.629089,55.862812 288.629089,75.892021 288.629089,96.552216 
	C286.344635,96.435516 284.281006,96.289383 282.214935,96.231377 
	C271.407867,95.927940 260.600494,95.471863 249.792603,95.454819 
	C246.105759,95.448997 244.058380,95.029503 243.476654,90.714897 
	C242.884460,86.322754 241.094727,82.092079 239.682556,77.435898 
z"/>
<path fill="#FD7043" opacity="1.000000" stroke="none" 
	d="
M323.469391,101.483795 
	C318.846313,100.547295 314.630188,99.733818 310.356995,98.909340 
	C310.356995,79.243256 310.356995,59.967808 310.356995,39.807243 
	C337.053711,46.231667 361.100189,57.152893 383.116669,72.149956 
	C377.508911,78.001221 371.487457,83.111618 366.979584,89.320854 
	C362.558777,95.410187 359.677673,102.617325 355.962555,109.632782 
	C345.697296,107.065056 334.786804,104.335938 323.469391,101.483795 
z"/>
<path fill="#FC6F43" opacity="1.000000" stroke="none" 
	d="
M393.355194,124.612595 
	C387.891052,122.119629 382.755615,119.805901 377.718964,117.536682 
	C378.602051,105.573769 390.025696,91.025055 400.731171,88.229851 
	C401.917328,87.920143 403.782196,88.360115 404.706726,89.168159 
	C429.418274,110.765526 448.316040,136.673309 461.719299,166.605682 
	C462.034607,167.309830 461.939056,168.197952 462.160980,170.050964 
	C440.904388,151.520905 418.420685,136.420853 393.355194,124.612595 
z"/>
<path fill="#FD7043" opacity="1.000000" stroke="none" 
	d="
M60.916611,150.958832 
	C60.782543,151.046021 60.450527,150.967957 60.217644,150.680115 
	C60.450737,150.578094 60.584698,150.685822 60.916611,150.958832 
z"/>
</svg>